<svg width="302" height="211" viewBox="0 0 302 211" fill="none" xmlns="http://www.w3.org/2000/svg">
<path opacity="0.5" fill-rule="evenodd" clip-rule="evenodd" d="M207.268 11.1807C153.444 -10.9336 88.3245 1.40385 46.663 41.6084C33.2379 54.5633 28.9876 60.471 18.2721 81.0737C9.8144 97.3359 8.21731 100.996 6.14128 108.876C0.932085 128.649 -0.566688 147.946 1.58358 167.542C2.92951 179.805 11.2285 207.402 16.7117 217.846C31.7787 246.544 53.7914 268.587 82.0075 283.23C118.216 302.021 157.059 305.328 196.371 292.965C217.524 286.313 231.981 278.532 247.751 265.31C280.938 237.483 300.882 195.648 301.391 152.792C302.012 100.41 275.815 52.2351 231.105 23.5412C221.022 17.0695 218.813 15.9239 207.268 11.1807ZM161.017 10.3356C160.096 12.1102 158.404 12.4242 149.272 12.5176C135.642 12.657 124.101 14.3456 110.875 18.1348C105.092 19.7909 100.273 21.1014 100.165 21.0455C98.7169 20.2939 98.0453 18.1813 98.7955 16.7357C100.008 14.3991 114.474 9.65703 126.459 7.66718C140.342 5.3621 156.855 4.89578 159.705 6.72814C161.659 7.98323 161.898 8.63856 161.017 10.3356ZM270.264 68.7272C277.308 78.9985 283.048 90.5188 287.538 103.393C291.405 114.484 291.358 117.12 287.282 117.443C285.798 117.561 284.71 115.486 281.415 106.255C276.921 93.6663 270.663 81.4394 263.312 70.8871C258.067 63.3592 257.38 61.1366 259.959 60.0537C262.613 58.9405 264.838 60.8133 270.264 68.7272ZM177.546 28.9509C193.448 40.6453 198.35 45.2471 198.721 48.8326C198.972 51.2554 197.491 54.5719 187.911 73.0315C177.467 93.1558 176.655 94.4798 174.217 95.3824C170.938 96.5968 115.95 104.796 112.359 104.606C110.018 104.483 107.626 102.387 93.0842 87.7209C72.4483 66.9088 72.8156 67.7389 79.429 56.8298C84.7613 48.0357 96.156 32.5842 99.4108 29.7357C106.306 23.7008 134.086 17.8659 154.157 18.2366C158.551 18.3183 162.902 18.7696 163.825 19.2403C164.748 19.7101 170.923 24.0802 177.546 28.9509ZM259.807 75.8572C269.736 90.4006 280.894 117.642 279.385 123.653C277.66 130.517 271.407 148.515 268.217 155.795C264.85 163.479 264.324 164.255 261.977 164.994C259.414 165.8 215.134 158.929 211.825 157.211C208.969 155.729 182.169 102.106 182.143 97.8214C182.13 95.7844 184.725 90.311 193.338 74.2047C203.531 55.1446 204.772 53.1566 206.991 52.3369C210.321 51.1057 232.16 56.9092 246.293 62.7819C251.138 64.7954 254.43 67.9794 259.807 75.8572ZM87.8184 89.8207C96.2886 98.3599 103.958 106.375 104.862 107.63C106.336 109.678 105.997 113.023 101.574 140.039C98.8616 156.609 96.0399 171.326 95.3035 172.745C94.2772 174.723 89.9034 177.351 76.5736 184.002C52.0016 196.26 52.5853 195.994 49.5811 196.295C47.0831 196.544 46.554 196.263 43.1873 192.903C37.428 187.157 20.8818 164.145 19.7749 160.342C17.3522 152.018 19.6675 127.124 24.2076 112.693C29.1702 96.9178 28.1635 98.3995 39.6853 89.9362C52.2287 80.7231 64.8506 72.9068 67.3784 72.7864C70.5233 72.6365 71.9761 73.8471 87.8184 89.8207ZM262.581 174.855C263.949 177.937 264.701 189.395 264.572 205.196C264.476 216.874 264.26 218.196 261.704 222.73C253.955 236.478 229.692 259.629 219.171 263.315C216.272 264.33 184.001 264.134 177.585 263.061C175.542 262.719 173.119 261.776 172.202 260.965C171.091 259.984 169.323 251.774 166.916 236.429C164.927 223.744 163.352 212.316 163.416 211.03C163.511 209.12 167.299 204.97 184.189 188.276C195.55 177.046 205.479 167.192 206.253 166.378C209.143 163.34 213.442 163.476 236.082 167.322C248.688 169.464 259.57 171.501 260.264 171.849C260.959 172.197 262.002 173.55 262.581 174.855ZM22.0407 99.1486C21.9355 100.403 20.4409 106.053 18.7185 111.708C15.0468 123.766 13.2347 135.593 13.0835 148.495C12.9976 155.853 12.6445 157.916 11.3812 158.446C8.88176 159.496 6.79975 157.833 6.3384 154.419C5.77669 150.266 6.74465 134.412 8.04318 126.501C10.2744 112.905 14.8897 97.9425 17.3875 96.2052C19.5427 94.7066 22.2688 96.4311 22.0407 99.1486ZM269.172 233.03C263.507 243.266 250.169 257.132 236.533 266.961C229.141 272.291 226.848 273.187 225.237 271.377C223.229 269.119 224.69 266.677 230.593 262.416C243.98 252.754 255.695 241.294 263.293 230.429C266.746 225.488 268.516 224.457 270.77 226.067C272.251 227.124 272.117 227.707 269.172 233.03ZM157.04 213.074C159.099 218.902 164.765 259.754 163.777 261.649C162.193 264.69 157.074 267.025 139.182 272.869C119.445 279.315 119.208 279.318 103.366 273.294C92.4942 269.16 77.8281 260.824 69.5669 254.084C62.5691 248.375 62.1026 247.376 55.6034 224.215C51.199 208.52 50.9354 205.707 53.5903 202.714C55.1833 200.919 94.4848 181.13 97.4823 180.614C98.8599 180.377 106.707 184.104 127.564 194.904L155.782 209.515L157.04 213.074ZM71.5409 262.499C82.4566 270.148 90.0452 274.092 103.336 279.02C116.685 283.97 116.014 283.588 116.052 286.263C116.105 289.956 113.513 289.901 102.334 285.971C94.6806 283.28 88.8468 280.542 79.724 275.361C61.2653 264.876 54.9673 258.867 60.1542 256.69C62.2908 255.794 61.121 255.198 71.5409 262.499Z" fill="#FAF7F7"/>
</svg>
